<?xml version="1.0" standalone="no"?>
<!DOCTYPE svg PUBLIC "-//W3C//DTD SVG 20010904//EN"
 "http://www.w3.org/TR/2001/REC-SVG-20010904/DTD/svg10.dtd">
<svg version="1.0" xmlns="http://www.w3.org/2000/svg"
 width="70.000000pt" height="70.000000pt" viewBox="0 0 70.000000 70.000000"
 preserveAspectRatio="xMidYMid meet">
<metadata>
Created by potrace 1.11, written by Peter Selinger 2001-2013
</metadata>
<g transform="translate(0.000000,70.000000) scale(0.100000,-0.100000)"
fill="#000000" stroke="none">
<path d="M40 335 l0 -227 129 4 c113 3 133 6 158 24 34 25 59 90 49 128 -7 28
-42 70 -65 77 -9 3 -4 15 18 36 42 43 43 99 2 145 l-29 32 -131 4 -131 4 0
-227z m222 138 c22 -20 23 -51 1 -75 -12 -14 -31 -18 -80 -18 l-63 0 0 55 0
55 62 0 c43 0 67 -5 80 -17z m13 -183 c22 -25 22 -65 0 -90 -15 -16 -31 -20
-87 -20 l-68 0 0 65 0 65 68 0 c56 0 72 -4 87 -20z"/>
<path d="M380 78 c0 -17 2 -18 15 -8 8 7 15 14 15 15 0 2 -7 5 -15 9 -10 4
-15 -1 -15 -16z"/>
</g>
</svg>
